<?xml version="1.0" standalone="no"?><!DOCTYPE svg PUBLIC "-//W3C//DTD SVG 1.1//EN" "http://www.w3.org/Graphics/SVG/1.1/DTD/svg11.dtd"><svg xmlns:xlink="http://www.w3.org/1999/xlink" version="1.1" style="font-family:open sans;font-size:12px;" xmlns="http://www.w3.org/2000/svg" width="1040" height="410"><desc>Created with Highcharts 4.1.5</desc><defs><clipPath id="highcharts-63"><rect x="0" y="0" width="843" height="210"></rect></clipPath></defs><rect x="0" y="0" width="1040" height="410" strokeWidth="0" fill="#FFFFFF" class=" highcharts-background"></rect><g class="highcharts-grid" ></g><g class="highcharts-grid" ></g><g class="highcharts-grid" ><path fill="none" d="M 115 338.5 L 958 338.5" stroke="#D8D8D8" stroke-width="1"  opacity="1"></path><path fill="none" d="M 115 268.5 L 958 268.5" stroke="#D8D8D8" stroke-width="1"  opacity="1"></path><path fill="none" d="M 115 198.5 L 958 198.5" stroke="#D8D8D8" stroke-width="1"  opacity="1"></path><path fill="none" d="M 115 127.5 L 958 127.5" stroke="#D8D8D8" stroke-width="1"  opacity="1"></path></g><g class="highcharts-grid" ><path fill="none" d="M 115 338.5 L 958 338.5" stroke="#D8D8D8" stroke-width="1"  opacity="1"></path><path fill="none" d="M 115 268.5 L 958 268.5" stroke="#D8D8D8" stroke-width="1"  opacity="1"></path><path fill="none" d="M 115 198.5 L 958 198.5" stroke="#D8D8D8" stroke-width="1"  opacity="1"></path><path fill="none" d="M 115 127.5 L 958 127.5" stroke="#D8D8D8" stroke-width="1"  opacity="1"></path></g><g class="highcharts-axis" ><path fill="none" d="M 191.5 338 L 191.5 348" stroke="#C0D0E0" stroke-width="1" opacity="1"></path><path fill="none" d="M 267.5 338 L 267.5 348" stroke="#C0D0E0" stroke-width="1" opacity="1"></path><path fill="none" d="M 344.5 338 L 344.5 348" stroke="#C0D0E0" stroke-width="1" opacity="1"></path><path fill="none" d="M 421.5 338 L 421.5 348" stroke="#C0D0E0" stroke-width="1" opacity="1"></path><path fill="none" d="M 497.5 338 L 497.5 348" stroke="#C0D0E0" stroke-width="1" opacity="1"></path><path fill="none" d="M 574.5 338 L 574.5 348" stroke="#C0D0E0" stroke-width="1" opacity="1"></path><path fill="none" d="M 650.5 338 L 650.5 348" stroke="#C0D0E0" stroke-width="1" opacity="1"></path><path fill="none" d="M 727.5 338 L 727.5 348" stroke="#C0D0E0" stroke-width="1" opacity="1"></path><path fill="none" d="M 804.5 338 L 804.5 348" stroke="#C0D0E0" stroke-width="1" opacity="1"></path><path fill="none" d="M 880.5 338 L 880.5 348" stroke="#C0D0E0" stroke-width="1" opacity="1"></path><path fill="none" d="M 957.5 338 L 957.5 348" stroke="#C0D0E0" stroke-width="1" opacity="1"></path><path fill="none" d="M 114.5 338 L 114.5 348" stroke="#C0D0E0" stroke-width="1" opacity="1"></path><path fill="none" d="M 115 338.5 L 958 338.5" stroke="#C0D0E0" stroke-width="1"  visibility="visible"></path></g><g class="highcharts-axis" ><path fill="none" d="M 191.5 128 L 191.5 118" stroke="#C0D0E0" stroke-width="1" opacity="1"></path><path fill="none" d="M 267.5 128 L 267.5 118" stroke="#C0D0E0" stroke-width="1" opacity="1"></path><path fill="none" d="M 344.5 128 L 344.5 118" stroke="#C0D0E0" stroke-width="1" opacity="1"></path><path fill="none" d="M 421.5 128 L 421.5 118" stroke="#C0D0E0" stroke-width="1" opacity="1"></path><path fill="none" d="M 497.5 128 L 497.5 118" stroke="#C0D0E0" stroke-width="1" opacity="1"></path><path fill="none" d="M 574.5 128 L 574.5 118" stroke="#C0D0E0" stroke-width="1" opacity="1"></path><path fill="none" d="M 650.5 128 L 650.5 118" stroke="#C0D0E0" stroke-width="1" opacity="1"></path><path fill="none" d="M 727.5 128 L 727.5 118" stroke="#C0D0E0" stroke-width="1" opacity="1"></path><path fill="none" d="M 804.5 128 L 804.5 118" stroke="#C0D0E0" stroke-width="1" opacity="1"></path><path fill="none" d="M 880.5 128 L 880.5 118" stroke="#C0D0E0" stroke-width="1" opacity="1"></path><path fill="none" d="M 957.5 128 L 957.5 118" stroke="#C0D0E0" stroke-width="1" opacity="1"></path><path fill="none" d="M 114.5 128 L 114.5 118" stroke="#C0D0E0" stroke-width="1" opacity="1"></path><path fill="none" d="M 115 127.5 L 958 127.5" stroke="#C0D0E0" stroke-width="1"  visibility="visible"></path></g><g class="highcharts-axis" ><text x="1015.59375"  text-anchor="middle" transform="translate(0,0) rotate(90 1015.59375 233)" class=" highcharts-yaxis-title" style="color:#000000;fill:#000000;" visibility="visible" y="233"><tspan>Nicholas Cage</tspan></text></g><g class="highcharts-axis" ><text x="23.578125"  text-anchor="middle" transform="translate(0,0) rotate(270 23.578125 233)" class=" highcharts-yaxis-title" style="color:#4443C3;fill:#4443C3;" visibility="visible" y="233"><tspan>Swimming pool drownings</tspan></text></g><g class="highcharts-series-group" ><g class="highcharts-series" visibility="visible"  transform="translate(115,128) scale(1 1)" clip-path="url(#highcharts-63)"><path fill="none" d="M 38.31818181818182 140 C 38.31818181818182 140 84.3 140 114.95454545454547 140 C 145.6090909090909 140 160.93636363636364 140 191.5909090909091 140 C 222.24545454545455 140 237.5727272727273 105 268.22727272727275 105 C 298.8818181818182 105 314.2090909090909 175 344.8636363636364 175 C 375.5181818181818 175 390.8454545454546 175 421.5 175 C 452.1545454545455 175 467.4818181818182 154 498.1363636363637 140 C 528.7909090909092 126 544.1181818181819 119 574.7727272727274 105 C 605.4272727272728 91 620.7545454545456 70 651.409090909091 70 C 682.0636363636364 70 697.3909090909092 175 728.0454545454546 175 C 758.7 175 804.6818181818182 70 804.6818181818182 70" stroke="#000000" stroke-width="2"  stroke-linejoin="round" stroke-linecap="round"></path></g><g class="highcharts-markers" visibility="visible"  transform="translate(115,128) scale(1 1)" clip-path="none"><path fill="#000000" d="M 804 66 C 809.328 66 809.328 74 804 74 C 798.672 74 798.672 66 804 66 Z"></path><path fill="#000000" d="M 728 171 C 733.328 171 733.328 179 728 179 C 722.672 179 722.672 171 728 171 Z"></path><path fill="#000000" d="M 651 66 C 656.328 66 656.328 74 651 74 C 645.672 74 645.672 66 651 66 Z"></path><path fill="#000000" d="M 574 101 C 579.328 101 579.328 109 574 109 C 568.672 109 568.672 101 574 101 Z"></path><path fill="#000000" d="M 498 136 C 503.328 136 503.328 144 498 144 C 492.672 144 492.672 136 498 136 Z"></path><path fill="#000000" d="M 421 171 C 426.328 171 426.328 179 421 179 C 415.672 179 415.672 171 421 171 Z"></path><path fill="#000000" d="M 344 171 C 349.328 171 349.328 179 344 179 C 338.672 179 338.672 171 344 171 Z"></path><path fill="#000000" d="M 268 101 C 273.328 101 273.328 109 268 109 C 262.672 109 262.672 101 268 101 Z"></path><path fill="#000000" d="M 191 136 C 196.328 136 196.328 144 191 144 C 185.672 144 185.672 136 191 136 Z"></path><path fill="#000000" d="M 114 136 C 119.328 136 119.328 144 114 144 C 108.672 144 108.672 136 114 136 Z"></path><path fill="#000000" d="M 38 136 C 43.328 136 43.328 144 38 144 C 32.672 144 32.672 136 38 136 Z"></path></g><g class="highcharts-series" visibility="visible"  transform="translate(115,128) scale(1 1)" clip-path="url(#highcharts-63)"><path fill="none" d="M 38.31818181818182 108.5 C 38.31818181818182 108.5 84.3 133 114.95454545454547 133 C 145.6090909090909 133 160.93636363636364 133 191.5909090909091 133 C 222.24545454545455 133 237.5727272727273 135.1 268.22727272727275 147 C 298.8818181818182 158.89999999999998 314.2090909090909 192.5 344.8636363636364 192.5 C 375.5181818181818 192.5 390.8454545454546 161 421.5 157.5 C 452.1545454545455 154 467.4818181818182 156.1 498.1363636363637 154 C 528.7909090909092 151.89999999999998 544.1181818181819 154 574.7727272727274 147 C 605.4272727272728 140 620.7545454545456 59.5 651.409090909091 59.5 C 682.0636363636364 59.5 697.3909090909092 161 728.0454545454546 161 C 758.7 161 804.6818181818182 133 804.6818181818182 133" stroke="#4443C3" stroke-width="2"  stroke-linejoin="round" stroke-linecap="round"></path></g><g class="highcharts-markers" visibility="visible"  transform="translate(115,128) scale(1 1)" clip-path="none"><path fill="#4443C3" d="M 804 129 L 808 133 804 137 800 133 Z"></path><path fill="#4443C3" d="M 728 157 L 732 161 728 165 724 161 Z"></path><path fill="#4443C3" d="M 651 55.5 L 655 59.5 651 63.5 647 59.5 Z"></path><path fill="#4443C3" d="M 574 143 L 578 147 574 151 570 147 Z"></path><path fill="#4443C3" d="M 498 150 L 502 154 498 158 494 154 Z"></path><path fill="#4443C3" d="M 421 153.5 L 425 157.5 421 161.5 417 157.5 Z"></path><path fill="#4443C3" d="M 344 188.5 L 348 192.5 344 196.5 340 192.5 Z"></path><path fill="#4443C3" d="M 268 143 L 272 147 268 151 264 147 Z"></path><path fill="#4443C3" d="M 191 129 L 195 133 191 137 187 133 Z"></path><path fill="#4443C3" d="M 114 129 L 118 133 114 137 110 133 Z"></path><path fill="#4443C3" d="M 38 104.5 L 42 108.5 38 112.5 34 108.5 Z"></path></g></g><text x="520" text-anchor="middle" class="highcharts-title"  style="color:#777;font-size:18px;fill:#777;width:976px;" y="24"><tspan style="fill:#4443C3;font-size:24px;font-weight:bold;font-family: 'lora'">Number of people who drowned by falling into a pool</tspan><tspan style="font-family: 'lora'" x="520" dy="21"> correlates with </tspan><tspan style="fill:#000000;font-size:24px;font-weight:bold;font-family: 'lora'" x="520" dy="29">Films Nicolas Cage appeared in</tspan></text><g class="highcharts-legend"  transform="translate(375,370)"><g ><g><g class="highcharts-legend-item"  transform="translate(8,3)"><path fill="none" d="M 0 11 L 16 11" stroke="#000000" stroke-width="2"></path><path fill="#000000" d="M 8 7 C 13.328 7 13.328 15 8 15 C 2.6719999999999997 15 2.6719999999999997 7 8 7 Z"></path><text x="21" style="color:#333333;font-size:12px;font-weight:bold;cursor:pointer;fill:#333333;" text-anchor="start"  y="15"><tspan>Nicholas Cage</tspan></text></g><g class="highcharts-legend-item"  transform="translate(123.671875,3)"><path fill="none" d="M 0 11 L 16 11" stroke="#4443C3" stroke-width="2"></path><path fill="#4443C3" d="M 8 7 L 12 11 8 15 4 11 Z"></path><text x="21" y="15" style="color:#333333;font-size:12px;font-weight:bold;cursor:pointer;fill:#333333;" text-anchor="start" ><tspan>Swimming pool drownings</tspan></text></g></g></g></g><g class="highcharts-axis-labels highcharts-xaxis-labels" ><text x="153.3181818181818" style="color:#000000;cursor:default;font-size:11px;fill:#000000;width:76.63636363636364;text-overflow:ellipsis;" text-anchor="middle" transform="translate(0,0)" y="357" opacity="1"><tspan>1999</tspan></text><text x="229.95454545454544" style="color:#000000;cursor:default;font-size:11px;fill:#000000;width:76.63636363636364;text-overflow:ellipsis;" text-anchor="middle" transform="translate(0,0)" y="357" opacity="1"><tspan>2000</tspan></text><text x="306.59090909090907" style="color:#000000;cursor:default;font-size:11px;fill:#000000;width:76.63636363636364;text-overflow:ellipsis;" text-anchor="middle" transform="translate(0,0)" y="357" opacity="1"><tspan>2001</tspan></text><text x="383.22727272727275" style="color:#000000;cursor:default;font-size:11px;fill:#000000;width:76.63636363636364;text-overflow:ellipsis;" text-anchor="middle" transform="translate(0,0)" y="357" opacity="1"><tspan>2002</tspan></text><text x="459.8636363636364" style="color:#000000;cursor:default;font-size:11px;fill:#000000;width:76.63636363636364;text-overflow:ellipsis;" text-anchor="middle" transform="translate(0,0)" y="357" opacity="1"><tspan>2003</tspan></text><text x="536.4999999999999" style="color:#000000;cursor:default;font-size:11px;fill:#000000;width:76.63636363636364;text-overflow:ellipsis;" text-anchor="middle" transform="translate(0,0)" y="357" opacity="1"><tspan>2004</tspan></text><text x="613.1363636363636" style="color:#000000;cursor:default;font-size:11px;fill:#000000;width:76.63636363636364;text-overflow:ellipsis;" text-anchor="middle" transform="translate(0,0)" y="357" opacity="1"><tspan>2005</tspan></text><text x="689.7727272727273" style="color:#000000;cursor:default;font-size:11px;fill:#000000;width:76.63636363636364;text-overflow:ellipsis;" text-anchor="middle" transform="translate(0,0)" y="357" opacity="1"><tspan>2006</tspan></text><text x="766.409090909091" style="color:#000000;cursor:default;font-size:11px;fill:#000000;width:76.63636363636364;text-overflow:ellipsis;" text-anchor="middle" transform="translate(0,0)" y="357" opacity="1"><tspan>2007</tspan></text><text x="843.0454545454546" style="color:#000000;cursor:default;font-size:11px;fill:#000000;width:76.63636363636364;text-overflow:ellipsis;" text-anchor="middle" transform="translate(0,0)" y="357" opacity="1"><tspan>2008</tspan></text><text x="919.6818181818182" style="color:#000000;cursor:default;font-size:11px;fill:#000000;width:76.63636363636364;text-overflow:ellipsis;" text-anchor="middle" transform="translate(0,0)" y="357" opacity="1"><tspan>2009</tspan></text></g><g class="highcharts-axis-labels highcharts-xaxis-labels" ><text x="153.3181818181818" style="color:#4443C3;cursor:default;font-size:11px;fill:#4443C3;width:76.63636363636364;text-overflow:ellipsis;" text-anchor="middle" transform="translate(0,0)" y="113" opacity="1"><tspan>1999</tspan></text><text x="229.95454545454544" style="color:#4443C3;cursor:default;font-size:11px;fill:#4443C3;width:76.63636363636364;text-overflow:ellipsis;" text-anchor="middle" transform="translate(0,0)" y="113" opacity="1"><tspan>2000</tspan></text><text x="306.59090909090907" style="color:#4443C3;cursor:default;font-size:11px;fill:#4443C3;width:76.63636363636364;text-overflow:ellipsis;" text-anchor="middle" transform="translate(0,0)" y="113" opacity="1"><tspan>2001</tspan></text><text x="383.22727272727275" style="color:#4443C3;cursor:default;font-size:11px;fill:#4443C3;width:76.63636363636364;text-overflow:ellipsis;" text-anchor="middle" transform="translate(0,0)" y="113" opacity="1"><tspan>2002</tspan></text><text x="459.8636363636364" style="color:#4443C3;cursor:default;font-size:11px;fill:#4443C3;width:76.63636363636364;text-overflow:ellipsis;" text-anchor="middle" transform="translate(0,0)" y="113" opacity="1"><tspan>2003</tspan></text><text x="536.4999999999999" style="color:#4443C3;cursor:default;font-size:11px;fill:#4443C3;width:76.63636363636364;text-overflow:ellipsis;" text-anchor="middle" transform="translate(0,0)" y="113" opacity="1"><tspan>2004</tspan></text><text x="613.1363636363636" style="color:#4443C3;cursor:default;font-size:11px;fill:#4443C3;width:76.63636363636364;text-overflow:ellipsis;" text-anchor="middle" transform="translate(0,0)" y="113" opacity="1"><tspan>2005</tspan></text><text x="689.7727272727273" style="color:#4443C3;cursor:default;font-size:11px;fill:#4443C3;width:76.63636363636364;text-overflow:ellipsis;" text-anchor="middle" transform="translate(0,0)" y="113" opacity="1"><tspan>2006</tspan></text><text x="766.409090909091" style="color:#4443C3;cursor:default;font-size:11px;fill:#4443C3;width:76.63636363636364;text-overflow:ellipsis;" text-anchor="middle" transform="translate(0,0)" y="113" opacity="1"><tspan>2007</tspan></text><text x="843.0454545454546" style="color:#4443C3;cursor:default;font-size:11px;fill:#4443C3;width:76.63636363636364;text-overflow:ellipsis;" text-anchor="middle" transform="translate(0,0)" y="113" opacity="1"><tspan>2008</tspan></text><text x="919.6818181818182" style="color:#4443C3;cursor:default;font-size:11px;fill:#4443C3;width:76.63636363636364;text-overflow:ellipsis;" text-anchor="middle" transform="translate(0,0)" y="113" opacity="1"><tspan>2009</tspan></text></g><g class="highcharts-axis-labels highcharts-yaxis-labels" ><text x="973" style="color:#000000;cursor:default;font-size:11px;fill:#000000;width:333px;text-overflow:clip;" text-anchor="start" transform="translate(0,0)" y="343" opacity="1"><tspan>0 films</tspan></text><text x="973" style="color:#000000;cursor:default;font-size:11px;fill:#000000;width:333px;text-overflow:clip;" text-anchor="start" transform="translate(0,0)" y="273" opacity="1"><tspan>2 films</tspan></text><text x="973" style="color:#000000;cursor:default;font-size:11px;fill:#000000;width:333px;text-overflow:clip;" text-anchor="start" transform="translate(0,0)" y="203" opacity="1"><tspan>4 films</tspan></text><text x="973" style="color:#000000;cursor:default;font-size:11px;fill:#000000;width:333px;text-overflow:clip;" text-anchor="start" transform="translate(0,0)" y="133" opacity="1"><tspan>6 films</tspan></text></g><g class="highcharts-axis-labels highcharts-yaxis-labels" ><text x="100" style="color:#4443C3;cursor:default;font-size:11px;fill:#4443C3;width:333px;text-overflow:clip;" text-anchor="end" transform="translate(0,0)" y="343" opacity="1"><tspan>80 drownings</tspan></text><text x="100" style="color:#4443C3;cursor:default;font-size:11px;fill:#4443C3;width:333px;text-overflow:clip;" text-anchor="end" transform="translate(0,0)" y="273" opacity="1"><tspan>100 drownings</tspan></text><text x="100" style="color:#4443C3;cursor:default;font-size:11px;fill:#4443C3;width:333px;text-overflow:clip;" text-anchor="end" transform="translate(0,0)" y="203" opacity="1"><tspan>120 drownings</tspan></text><text x="100" style="color:#4443C3;cursor:default;font-size:11px;fill:#4443C3;width:333px;text-overflow:clip;" text-anchor="end" transform="translate(0,0)" y="133" opacity="1"><tspan>140 drownings</tspan></text></g><g class="highcharts-tooltip"  style="cursor:default;padding:0;white-space:nowrap;" transform="translate(0,-9999)"><path fill="none" d="M 3 0 L 13 0 C 16 0 16 0 16 3 L 16 13 C 16 16 16 16 13 16 L 3 16 C 0 16 0 16 0 13 L 0 3 C 0 0 0 0 3 0"  stroke="black" stroke-opacity="0.049999999999999996" stroke-width="5" transform="translate(1, 1)"></path><path fill="none" d="M 3 0 L 13 0 C 16 0 16 0 16 3 L 16 13 C 16 16 16 16 13 16 L 3 16 C 0 16 0 16 0 13 L 0 3 C 0 0 0 0 3 0"  stroke="black" stroke-opacity="0.09999999999999999" stroke-width="3" transform="translate(1, 1)"></path><path fill="none" d="M 3 0 L 13 0 C 16 0 16 0 16 3 L 16 13 C 16 16 16 16 13 16 L 3 16 C 0 16 0 16 0 13 L 0 3 C 0 0 0 0 3 0"  stroke="black" stroke-opacity="0.15" stroke-width="1" transform="translate(1, 1)"></path><path fill="rgb(249, 249, 249)" fill-opacity=" .85" d="M 3 0 L 13 0 C 16 0 16 0 16 3 L 16 13 C 16 16 16 16 13 16 L 3 16 C 0 16 0 16 0 13 L 0 3 C 0 0 0 0 3 0"></path><text x="8"  style="font-size:12px;color:#333333;fill:#333333;" transform="translate(0,20)"></text></g><text x="1030" text-anchor="end"  style="cursor:pointer;color:#909090;font-size:9px;fill:#909090;" y="405">tylervigen.com</text></svg>