<?xml version="1.0" standalone="no"?><!DOCTYPE svg PUBLIC "-//W3C//DTD SVG 1.1//EN" "http://www.w3.org/Graphics/SVG/1.1/DTD/svg11.dtd"><svg xmlns:xlink="http://www.w3.org/1999/xlink" version="1.1" style="font-family:open sans;font-size:12px;" xmlns="http://www.w3.org/2000/svg" width="1040" height="410"><desc>Created with Highcharts 4.1.5</desc><defs><clipPath id="highcharts-75"><rect x="0" y="0" width="857" height="210"></rect></clipPath></defs><rect x="0" y="0" width="1040" height="410" strokeWidth="0" fill="#FFFFFF" class=" highcharts-background"></rect><g class="highcharts-grid" ></g><g class="highcharts-grid" ></g><g class="highcharts-grid" ><path fill="none" d="M 114 338.5 L 971 338.5" stroke="#D8D8D8" stroke-width="1"  opacity="1"></path><path fill="none" d="M 114 278.5 L 971 278.5" stroke="#D8D8D8" stroke-width="1"  opacity="1"></path><path fill="none" d="M 114 218.5 L 971 218.5" stroke="#D8D8D8" stroke-width="1"  opacity="1"></path><path fill="none" d="M 114 158.5 L 971 158.5" stroke="#D8D8D8" stroke-width="1"  opacity="1"></path></g><g class="highcharts-grid" ></g><g class="highcharts-axis" ><path fill="none" d="M 199.5 338 L 199.5 348" stroke="#C0D0E0" stroke-width="1" opacity="1"></path><path fill="none" d="M 284.5 338 L 284.5 348" stroke="#C0D0E0" stroke-width="1" opacity="1"></path><path fill="none" d="M 370.5 338 L 370.5 348" stroke="#C0D0E0" stroke-width="1" opacity="1"></path><path fill="none" d="M 456.5 338 L 456.5 348" stroke="#C0D0E0" stroke-width="1" opacity="1"></path><path fill="none" d="M 542.5 338 L 542.5 348" stroke="#C0D0E0" stroke-width="1" opacity="1"></path><path fill="none" d="M 627.5 338 L 627.5 348" stroke="#C0D0E0" stroke-width="1" opacity="1"></path><path fill="none" d="M 713.5 338 L 713.5 348" stroke="#C0D0E0" stroke-width="1" opacity="1"></path><path fill="none" d="M 799.5 338 L 799.5 348" stroke="#C0D0E0" stroke-width="1" opacity="1"></path><path fill="none" d="M 884.5 338 L 884.5 348" stroke="#C0D0E0" stroke-width="1" opacity="1"></path><path fill="none" d="M 971.5 338 L 971.5 348" stroke="#C0D0E0" stroke-width="1" opacity="1"></path><path fill="none" d="M 113.5 338 L 113.5 348" stroke="#C0D0E0" stroke-width="1" opacity="1"></path><path fill="none" d="M 114 338.5 L 971 338.5" stroke="#C0D0E0" stroke-width="1"  visibility="visible"></path></g><g class="highcharts-axis" ><path fill="none" d="M 199.5 128 L 199.5 118" stroke="#C0D0E0" stroke-width="1" opacity="1"></path><path fill="none" d="M 284.5 128 L 284.5 118" stroke="#C0D0E0" stroke-width="1" opacity="1"></path><path fill="none" d="M 370.5 128 L 370.5 118" stroke="#C0D0E0" stroke-width="1" opacity="1"></path><path fill="none" d="M 456.5 128 L 456.5 118" stroke="#C0D0E0" stroke-width="1" opacity="1"></path><path fill="none" d="M 542.5 128 L 542.5 118" stroke="#C0D0E0" stroke-width="1" opacity="1"></path><path fill="none" d="M 627.5 128 L 627.5 118" stroke="#C0D0E0" stroke-width="1" opacity="1"></path><path fill="none" d="M 713.5 128 L 713.5 118" stroke="#C0D0E0" stroke-width="1" opacity="1"></path><path fill="none" d="M 799.5 128 L 799.5 118" stroke="#C0D0E0" stroke-width="1" opacity="1"></path><path fill="none" d="M 884.5 128 L 884.5 118" stroke="#C0D0E0" stroke-width="1" opacity="1"></path><path fill="none" d="M 971.5 128 L 971.5 118" stroke="#C0D0E0" stroke-width="1" opacity="1"></path><path fill="none" d="M 113.5 128 L 113.5 118" stroke="#C0D0E0" stroke-width="1" opacity="1"></path><path fill="none" d="M 114 127.5 L 971 127.5" stroke="#C0D0E0" stroke-width="1"  visibility="visible"></path></g><g class="highcharts-axis" ><text x="1016.0625"  text-anchor="middle" transform="translate(0,0) rotate(90 1016.0625 233)" class=" highcharts-yaxis-title" style="color:#000000;fill:#000000;" visibility="visible" y="233"><tspan>Margarine consumed</tspan></text></g><g class="highcharts-axis" ><text x="23.953125"  text-anchor="middle" transform="translate(0,0) rotate(270 23.953125 233)" class=" highcharts-yaxis-title" style="color:#4443C3;fill:#4443C3;" visibility="visible" y="233"><tspan>Divorce rate in Maine</tspan></text></g><g class="highcharts-series-group" ><g class="highcharts-series" visibility="visible"  transform="translate(114,128) scale(1 1)" clip-path="url(#highcharts-75)"><path fill="none" d="M 42.85 24.00000000000003 C 42.85 24.00000000000003 94.27000000000001 49.8 128.55 60 C 162.83 70.19999999999999 179.97 64.8 214.25 75 C 248.53000000000003 85.2 265.67 108 299.95000000000005 111 C 334.23 114 351.37 111 385.65000000000003 114 C 419.93 117 437.07000000000005 150 471.35 150 C 505.6300000000001 150 522.7700000000001 132 557.0500000000001 132 C 591.33 132 608.47 132.6 642.75 135 C 677.03 137.39999999999998 694.1700000000001 139.20000000000002 728.45 144 C 762.7300000000001 148.8 814.1500000000001 159 814.1500000000001 159" stroke="#000000" stroke-width="2"  stroke-linejoin="round" stroke-linecap="round"></path></g><g class="highcharts-markers" visibility="visible"  transform="translate(114,128) scale(1 1)" clip-path="none"><path fill="#000000" d="M 814 155 C 819.328 155 819.328 163 814 163 C 808.672 163 808.672 155 814 155 Z"></path><path fill="#000000" d="M 728 140 C 733.328 140 733.328 148 728 148 C 722.672 148 722.672 140 728 140 Z"></path><path fill="#000000" d="M 642 131 C 647.328 131 647.328 139 642 139 C 636.672 139 636.672 131 642 131 Z"></path><path fill="#000000" d="M 557 128 C 562.328 128 562.328 136 557 136 C 551.672 136 551.672 128 557 128 Z"></path><path fill="#000000" d="M 471 146 C 476.328 146 476.328 154 471 154 C 465.672 154 465.672 146 471 146 Z"></path><path fill="#000000" d="M 385 110 C 390.328 110 390.328 118 385 118 C 379.672 118 379.672 110 385 110 Z"></path><path fill="#000000" d="M 299 107 C 304.328 107 304.328 115 299 115 C 293.672 115 293.672 107 299 107 Z"></path><path fill="#000000" d="M 214 71 C 219.328 71 219.328 79 214 79 C 208.672 79 208.672 71 214 71 Z"></path><path fill="#000000" d="M 128 56 C 133.328 56 133.328 64 128 64 C 122.672 64 122.672 56 128 56 Z"></path><path fill="#000000" d="M 42 20.00000000000003 C 47.328 20.00000000000003 47.328 28.00000000000003 42 28.00000000000003 C 36.672 28.00000000000003 36.672 20.00000000000003 42 20.00000000000003 Z"></path></g><g class="highcharts-series" visibility="visible"  transform="translate(114,128) scale(1 1)" clip-path="url(#highcharts-75)"><path fill="none" d="M 42.85 0 C 42.85 0 94.27000000000001 44.42307692307686 128.55 60.57692307692304 C 162.83 76.7307692307692 179.97 68.65384615384626 214.25 80.76923076923086 C 248.53000000000003 92.88461538461547 265.67 109.03846153846149 299.95000000000005 121.15384615384609 C 334.23 133.2692307692307 351.37 129.23076923076923 385.65000000000003 141.34615384615387 C 419.93 153.4615384615385 437.07000000000005 181.73076923076928 471.35 181.73076923076928 C 505.6300000000001 181.73076923076928 522.7700000000001 161.5384615384615 557.0500000000001 161.5384615384615 C 591.33 161.5384615384615 608.47 161.5384615384615 642.75 161.5384615384615 C 677.03 161.5384615384615 694.1700000000001 161.5384615384615 728.45 161.5384615384615 C 762.7300000000001 161.5384615384615 814.1500000000001 181.73076923076928 814.1500000000001 181.73076923076928" stroke="#4443C3" stroke-width="2"  stroke-linejoin="round" stroke-linecap="round"></path></g><g class="highcharts-markers" visibility="visible"  transform="translate(114,128) scale(1 1)" clip-path="none"><path fill="#4443C3" d="M 814 177.73076923076928 L 818 181.73076923076928 814 185.73076923076928 810 181.73076923076928 Z"></path><path fill="#4443C3" d="M 728 157.5384615384615 L 732 161.5384615384615 728 165.5384615384615 724 161.5384615384615 Z"></path><path fill="#4443C3" d="M 642 157.5384615384615 L 646 161.5384615384615 642 165.5384615384615 638 161.5384615384615 Z"></path><path fill="#4443C3" d="M 557 157.5384615384615 L 561 161.5384615384615 557 165.5384615384615 553 161.5384615384615 Z"></path><path fill="#4443C3" d="M 471 177.73076923076928 L 475 181.73076923076928 471 185.73076923076928 467 181.73076923076928 Z"></path><path fill="#4443C3" d="M 385 137.34615384615387 L 389 141.34615384615387 385 145.34615384615387 381 141.34615384615387 Z"></path><path fill="#4443C3" d="M 299 117.15384615384609 L 303 121.15384615384609 299 125.15384615384609 295 121.15384615384609 Z"></path><path fill="#4443C3" d="M 214 76.76923076923086 L 218 80.76923076923086 214 84.76923076923086 210 80.76923076923086 Z"></path><path fill="#4443C3" d="M 128 56.57692307692304 L 132 60.57692307692304 128 64.57692307692304 124 60.57692307692304 Z"></path><path fill="#4443C3" d="M 42 -4 L 46 0 42 4 38 0 Z"></path></g></g><text x="520" text-anchor="middle" class="highcharts-title"  style="color:#777;font-size:18px;fill:#777;width:976px;" y="24"><tspan style="fill:#4443C3;font-size:24px;font-weight:bold;font-family: 'lora'">Divorce rate in Maine</tspan><tspan style="font-family: 'lora'" x="520" dy="21"> correlates with </tspan><tspan style="fill:#000000;font-size:24px;font-weight:bold;font-family: 'lora'" x="520" dy="29">Per capita consumption of margarine</tspan></text><g class="highcharts-legend"  transform="translate(369,370)"><g ><g><g class="highcharts-legend-item"  transform="translate(8,3)"><path fill="none" d="M 0 11 L 16 11" stroke="#000000" stroke-width="2"></path><path fill="#000000" d="M 8 7 C 13.328 7 13.328 15 8 15 C 2.6719999999999997 15 2.6719999999999997 7 8 7 Z"></path><text x="21" style="color:#333333;font-size:12px;font-weight:bold;cursor:pointer;fill:#333333;" text-anchor="start"  y="15"><tspan>Margarine consumed</tspan></text></g><g class="highcharts-legend-item"  transform="translate(159.984375,3)"><path fill="none" d="M 0 11 L 16 11" stroke="#4443C3" stroke-width="2"></path><path fill="#4443C3" d="M 8 7 L 12 11 8 15 4 11 Z"></path><text x="21" y="15" style="color:#333333;font-size:12px;font-weight:bold;cursor:pointer;fill:#333333;" text-anchor="start" ><tspan>Divorce rate in Maine</tspan></text></g></g></g></g><g class="highcharts-axis-labels highcharts-xaxis-labels" ><text x="156.85" style="color:#000000;cursor:default;font-size:11px;fill:#000000;width:75px;text-overflow:clip;" text-anchor="middle" transform="translate(0,0)" y="357" opacity="1">2000</text><text x="242.54999999999998" style="color:#000000;cursor:default;font-size:11px;fill:#000000;width:75px;text-overflow:clip;" text-anchor="middle" transform="translate(0,0)" y="357" opacity="1">2001</text><text x="328.25" style="color:#000000;cursor:default;font-size:11px;fill:#000000;width:75px;text-overflow:clip;" text-anchor="middle" transform="translate(0,0)" y="357" opacity="1">2002</text><text x="413.95" style="color:#000000;cursor:default;font-size:11px;fill:#000000;width:75px;text-overflow:clip;" text-anchor="middle" transform="translate(0,0)" y="357" opacity="1">2003</text><text x="499.65" style="color:#000000;cursor:default;font-size:11px;fill:#000000;width:75px;text-overflow:clip;" text-anchor="middle" transform="translate(0,0)" y="357" opacity="1">2004</text><text x="585.35" style="color:#000000;cursor:default;font-size:11px;fill:#000000;width:75px;text-overflow:clip;" text-anchor="middle" transform="translate(0,0)" y="357" opacity="1">2005</text><text x="671.0500000000001" style="color:#000000;cursor:default;font-size:11px;fill:#000000;width:75px;text-overflow:clip;" text-anchor="middle" transform="translate(0,0)" y="357" opacity="1">2006</text><text x="756.75" style="color:#000000;cursor:default;font-size:11px;fill:#000000;width:75px;text-overflow:clip;" text-anchor="middle" transform="translate(0,0)" y="357" opacity="1">2007</text><text x="842.45" style="color:#000000;cursor:default;font-size:11px;fill:#000000;width:75px;text-overflow:clip;" text-anchor="middle" transform="translate(0,0)" y="357" opacity="1">2008</text><text x="928.15" style="color:#000000;cursor:default;font-size:11px;fill:#000000;width:75px;text-overflow:clip;" text-anchor="middle" transform="translate(0,0)" y="357" opacity="1">2009</text></g><g class="highcharts-axis-labels highcharts-xaxis-labels" ><text x="156.85" style="color:#4443C3;cursor:default;font-size:11px;fill:#4443C3;width:75px;text-overflow:clip;" text-anchor="middle" transform="translate(0,0)" y="113" opacity="1">2000</text><text x="242.54999999999998" style="color:#4443C3;cursor:default;font-size:11px;fill:#4443C3;width:75px;text-overflow:clip;" text-anchor="middle" transform="translate(0,0)" y="113" opacity="1">2001</text><text x="328.25" style="color:#4443C3;cursor:default;font-size:11px;fill:#4443C3;width:75px;text-overflow:clip;" text-anchor="middle" transform="translate(0,0)" y="113" opacity="1">2002</text><text x="413.95" style="color:#4443C3;cursor:default;font-size:11px;fill:#4443C3;width:75px;text-overflow:clip;" text-anchor="middle" transform="translate(0,0)" y="113" opacity="1">2003</text><text x="499.65" style="color:#4443C3;cursor:default;font-size:11px;fill:#4443C3;width:75px;text-overflow:clip;" text-anchor="middle" transform="translate(0,0)" y="113" opacity="1">2004</text><text x="585.35" style="color:#4443C3;cursor:default;font-size:11px;fill:#4443C3;width:75px;text-overflow:clip;" text-anchor="middle" transform="translate(0,0)" y="113" opacity="1">2005</text><text x="671.0500000000001" style="color:#4443C3;cursor:default;font-size:11px;fill:#4443C3;width:75px;text-overflow:clip;" text-anchor="middle" transform="translate(0,0)" y="113" opacity="1">2006</text><text x="756.75" style="color:#4443C3;cursor:default;font-size:11px;fill:#4443C3;width:75px;text-overflow:clip;" text-anchor="middle" transform="translate(0,0)" y="113" opacity="1">2007</text><text x="842.45" style="color:#4443C3;cursor:default;font-size:11px;fill:#4443C3;width:75px;text-overflow:clip;" text-anchor="middle" transform="translate(0,0)" y="113" opacity="1">2008</text><text x="928.15" style="color:#4443C3;cursor:default;font-size:11px;fill:#4443C3;width:75px;text-overflow:clip;" text-anchor="middle" transform="translate(0,0)" y="113" opacity="1">2009</text></g><g class="highcharts-axis-labels highcharts-yaxis-labels" ><text x="986" style="color:#000000;cursor:default;font-size:11px;fill:#000000;width:333px;text-overflow:clip;" text-anchor="start" transform="translate(0,0)" y="343" opacity="1">2lbs</text><text x="986" style="color:#000000;cursor:default;font-size:11px;fill:#000000;width:333px;text-overflow:clip;" text-anchor="start" transform="translate(0,0)" y="283" opacity="1">4lbs</text><text x="986" style="color:#000000;cursor:default;font-size:11px;fill:#000000;width:333px;text-overflow:clip;" text-anchor="start" transform="translate(0,0)" y="223" opacity="1">6lbs</text><text x="986" style="color:#000000;cursor:default;font-size:11px;fill:#000000;width:333px;text-overflow:clip;" text-anchor="start" transform="translate(0,0)" y="163" opacity="1">8lbs</text></g><g class="highcharts-axis-labels highcharts-yaxis-labels" ><text x="99" style="color:#4443C3;cursor:default;font-size:11px;fill:#4443C3;width:333px;text-overflow:clip;" text-anchor="end" transform="translate(0,0)" y="343" opacity="1"><tspan>3.96 per 1,000</tspan></text><text x="99" style="color:#4443C3;cursor:default;font-size:11px;fill:#4443C3;width:333px;text-overflow:clip;" text-anchor="end" transform="translate(0,0)" y="276" opacity="1"><tspan>4.29 per 1,000</tspan></text><text x="99" style="color:#4443C3;cursor:default;font-size:11px;fill:#4443C3;width:333px;text-overflow:clip;" text-anchor="end" transform="translate(0,0)" y="210" opacity="1"><tspan>4.62 per 1,000</tspan></text><text x="99" style="color:#4443C3;cursor:default;font-size:11px;fill:#4443C3;width:333px;text-overflow:clip;" text-anchor="end" transform="translate(0,0)" y="143" opacity="1"><tspan>4.95 per 1,000</tspan></text></g><g class="highcharts-tooltip"  style="cursor:default;padding:0;white-space:nowrap;" transform="translate(0,-9999)"><path fill="none" d="M 3 0 L 13 0 C 16 0 16 0 16 3 L 16 13 C 16 16 16 16 13 16 L 3 16 C 0 16 0 16 0 13 L 0 3 C 0 0 0 0 3 0"  stroke="black" stroke-opacity="0.049999999999999996" stroke-width="5" transform="translate(1, 1)"></path><path fill="none" d="M 3 0 L 13 0 C 16 0 16 0 16 3 L 16 13 C 16 16 16 16 13 16 L 3 16 C 0 16 0 16 0 13 L 0 3 C 0 0 0 0 3 0"  stroke="black" stroke-opacity="0.09999999999999999" stroke-width="3" transform="translate(1, 1)"></path><path fill="none" d="M 3 0 L 13 0 C 16 0 16 0 16 3 L 16 13 C 16 16 16 16 13 16 L 3 16 C 0 16 0 16 0 13 L 0 3 C 0 0 0 0 3 0"  stroke="black" stroke-opacity="0.15" stroke-width="1" transform="translate(1, 1)"></path><path fill="rgb(249, 249, 249)" fill-opacity=" .85" d="M 3 0 L 13 0 C 16 0 16 0 16 3 L 16 13 C 16 16 16 16 13 16 L 3 16 C 0 16 0 16 0 13 L 0 3 C 0 0 0 0 3 0"></path><text x="8"  style="font-size:12px;color:#333333;fill:#333333;" transform="translate(0,20)"></text></g><text x="1030" text-anchor="end"  style="cursor:pointer;color:#909090;font-size:9px;fill:#909090;" y="405">tylervigen.com</text></svg>