<?xml version="1.0" standalone="no"?><!DOCTYPE svg PUBLIC "-//W3C//DTD SVG 1.1//EN" "http://www.w3.org/Graphics/SVG/1.1/DTD/svg11.dtd"><svg xmlns:xlink="http://www.w3.org/1999/xlink" version="1.1" style="font-family:open sans;font-size:12px;" xmlns="http://www.w3.org/2000/svg" width="1040" height="410"><desc>Created with Highcharts 4.1.5</desc><defs><clipPath id="highcharts-70"><rect x="0" y="0" width="859" height="210"></rect></clipPath></defs><rect x="0" y="0" width="1040" height="410" strokeWidth="0" fill="#FFFFFF" class=" highcharts-background"></rect><g class="highcharts-grid" ></g><g class="highcharts-grid" ></g><g class="highcharts-grid" ></g><g class="highcharts-grid" ><path fill="none" d="M 83 338.5 L 942 338.5" stroke="#D8D8D8" stroke-width="1"  opacity="1"></path><path fill="none" d="M 83 281.5 L 942 281.5" stroke="#D8D8D8" stroke-width="1"  opacity="1"></path><path fill="none" d="M 83 223.5 L 942 223.5" stroke="#D8D8D8" stroke-width="1"  opacity="1"></path><path fill="none" d="M 83 166.5 L 942 166.5" stroke="#D8D8D8" stroke-width="1"  opacity="1"></path></g><g class="highcharts-axis" ><path fill="none" d="M 168.5 338 L 168.5 348" stroke="#C0D0E0" stroke-width="1" opacity="1"></path><path fill="none" d="M 254.5 338 L 254.5 348" stroke="#C0D0E0" stroke-width="1" opacity="1"></path><path fill="none" d="M 340.5 338 L 340.5 348" stroke="#C0D0E0" stroke-width="1" opacity="1"></path><path fill="none" d="M 426.5 338 L 426.5 348" stroke="#C0D0E0" stroke-width="1" opacity="1"></path><path fill="none" d="M 512.5 338 L 512.5 348" stroke="#C0D0E0" stroke-width="1" opacity="1"></path><path fill="none" d="M 597.5 338 L 597.5 348" stroke="#C0D0E0" stroke-width="1" opacity="1"></path><path fill="none" d="M 683.5 338 L 683.5 348" stroke="#C0D0E0" stroke-width="1" opacity="1"></path><path fill="none" d="M 769.5 338 L 769.5 348" stroke="#C0D0E0" stroke-width="1" opacity="1"></path><path fill="none" d="M 855.5 338 L 855.5 348" stroke="#C0D0E0" stroke-width="1" opacity="1"></path><path fill="none" d="M 941.5 338 L 941.5 348" stroke="#C0D0E0" stroke-width="1" opacity="1"></path><path fill="none" d="M 82.5 338 L 82.5 348" stroke="#C0D0E0" stroke-width="1" opacity="1"></path><path fill="none" d="M 83 338.5 L 942 338.5" stroke="#C0D0E0" stroke-width="1"  visibility="visible"></path></g><g class="highcharts-axis" ><path fill="none" d="M 168.5 128 L 168.5 118" stroke="#C0D0E0" stroke-width="1" opacity="1"></path><path fill="none" d="M 254.5 128 L 254.5 118" stroke="#C0D0E0" stroke-width="1" opacity="1"></path><path fill="none" d="M 340.5 128 L 340.5 118" stroke="#C0D0E0" stroke-width="1" opacity="1"></path><path fill="none" d="M 426.5 128 L 426.5 118" stroke="#C0D0E0" stroke-width="1" opacity="1"></path><path fill="none" d="M 512.5 128 L 512.5 118" stroke="#C0D0E0" stroke-width="1" opacity="1"></path><path fill="none" d="M 597.5 128 L 597.5 118" stroke="#C0D0E0" stroke-width="1" opacity="1"></path><path fill="none" d="M 683.5 128 L 683.5 118" stroke="#C0D0E0" stroke-width="1" opacity="1"></path><path fill="none" d="M 769.5 128 L 769.5 118" stroke="#C0D0E0" stroke-width="1" opacity="1"></path><path fill="none" d="M 855.5 128 L 855.5 118" stroke="#C0D0E0" stroke-width="1" opacity="1"></path><path fill="none" d="M 941.5 128 L 941.5 118" stroke="#C0D0E0" stroke-width="1" opacity="1"></path><path fill="none" d="M 82.5 128 L 82.5 118" stroke="#C0D0E0" stroke-width="1" opacity="1"></path><path fill="none" d="M 83 127.5 L 942 127.5" stroke="#C0D0E0" stroke-width="1"  visibility="visible"></path></g><g class="highcharts-axis" ><text x="1016.078125"  text-anchor="middle" transform="translate(0,0) rotate(90 1016.078125 233)" class=" highcharts-yaxis-title" style="color:#000000;fill:#000000;" visibility="visible" y="233"><tspan>Bedsheet tanglings</tspan></text></g><g class="highcharts-axis" ><text x="24.171875"  text-anchor="middle" transform="translate(0,0) rotate(270 24.171875 233)" class=" highcharts-yaxis-title" style="color:#4443C3;fill:#4443C3;" visibility="visible" y="233"><tspan>Cheese consumed</tspan></text></g><g class="highcharts-series-group" ><g class="highcharts-series" visibility="visible"  transform="translate(83,128) scale(1 1)" clip-path="url(#highcharts-70)"><path fill="none" d="M 42.95 171.9 C 42.95 171.9 94.49000000000001 144.12 128.85000000000002 133.2 C 163.21 122.27999999999999 180.39000000000001 117.3 214.75 117.3 C 249.11000000000004 117.3 266.29 120.9 300.65000000000003 120.9 C 335.01000000000005 120.9 352.19000000000005 91.2 386.55 91.2 C 420.91 91.2 438.09 98.10000000000001 472.45 98.10000000000001 C 506.81000000000006 98.10000000000001 523.99 81.78000000000003 558.3500000000001 71.70000000000002 C 592.7100000000002 61.62000000000003 609.8900000000001 56.58000000000002 644.2500000000001 47.70000000000002 C 678.6100000000001 38.82000000000001 695.7900000000002 27.30000000000001 730.1500000000001 27.30000000000001 C 764.51 27.30000000000001 816.0500000000001 54.900000000000006 816.0500000000001 54.900000000000006" stroke="#000000" stroke-width="2"  stroke-linejoin="round" stroke-linecap="round"></path></g><g class="highcharts-markers" visibility="visible"  transform="translate(83,128) scale(1 1)" clip-path="none"><path fill="#000000" d="M 816 50.900000000000006 C 821.328 50.900000000000006 821.328 58.900000000000006 816 58.900000000000006 C 810.672 58.900000000000006 810.672 50.900000000000006 816 50.900000000000006 Z"></path><path fill="#000000" d="M 730 23.30000000000001 C 735.328 23.30000000000001 735.328 31.30000000000001 730 31.30000000000001 C 724.672 31.30000000000001 724.672 23.30000000000001 730 23.30000000000001 Z"></path><path fill="#000000" d="M 644 43.70000000000002 C 649.328 43.70000000000002 649.328 51.70000000000002 644 51.70000000000002 C 638.672 51.70000000000002 638.672 43.70000000000002 644 43.70000000000002 Z"></path><path fill="#000000" d="M 558 67.70000000000002 C 563.328 67.70000000000002 563.328 75.70000000000002 558 75.70000000000002 C 552.672 75.70000000000002 552.672 67.70000000000002 558 67.70000000000002 Z"></path><path fill="#000000" d="M 472 94.10000000000001 C 477.328 94.10000000000001 477.328 102.10000000000001 472 102.10000000000001 C 466.672 102.10000000000001 466.672 94.10000000000001 472 94.10000000000001 Z"></path><path fill="#000000" d="M 386 87.2 C 391.328 87.2 391.328 95.2 386 95.2 C 380.672 95.2 380.672 87.2 386 87.2 Z"></path><path fill="#000000" d="M 300 116.9 C 305.328 116.9 305.328 124.9 300 124.9 C 294.672 124.9 294.672 116.9 300 116.9 Z"></path><path fill="#000000" d="M 214 113.3 C 219.328 113.3 219.328 121.3 214 121.3 C 208.672 121.3 208.672 113.3 214 113.3 Z"></path><path fill="#000000" d="M 128 129.2 C 133.328 129.2 133.328 137.2 128 137.2 C 122.672 137.2 122.672 129.2 128 129.2 Z"></path><path fill="#000000" d="M 42 167.9 C 47.328 167.9 47.328 175.9 42 175.9 C 36.672 175.9 36.672 167.9 42 167.9 Z"></path></g><g class="highcharts-series" visibility="visible"  transform="translate(83,128) scale(1 1)" clip-path="url(#highcharts-70)"><path fill="none" d="M 42.95 160.36363636363635 C 42.95 160.36363636363635 94.49000000000001 154.2545454545454 128.85000000000002 148.90909090909085 C 163.21 143.5636363636363 180.39000000000001 137.45454545454544 214.75 133.63636363636363 C 249.11000000000004 129.8181818181818 266.29 133.63636363636363 300.65000000000003 129.81818181818176 C 335.01000000000005 125.99999999999989 352.19000000000005 111.49090909090906 386.55 103.09090909090907 C 420.91 94.69090909090907 438.09 97.74545454545458 472.45 87.81818181818186 C 506.81000000000006 77.89090909090912 523.99 64.14545454545454 558.3500000000001 53.45454545454541 C 592.7100000000002 42.76363636363632 609.8900000000001 34.36363636363632 644.2500000000001 34.36363636363632 C 678.6100000000001 34.36363636363632 695.7900000000002 49.63636363636354 730.1500000000001 49.63636363636354 C 764.51 49.63636363636354 816.0500000000001 45.81818181818193 816.0500000000001 45.81818181818193" stroke="#4443C3" stroke-width="2"  stroke-linejoin="round" stroke-linecap="round"></path></g><g class="highcharts-markers" visibility="visible"  transform="translate(83,128) scale(1 1)" clip-path="none"><path fill="#4443C3" d="M 816 41.81818181818193 L 820 45.81818181818193 816 49.81818181818193 812 45.81818181818193 Z"></path><path fill="#4443C3" d="M 730 45.63636363636354 L 734 49.63636363636354 730 53.63636363636354 726 49.63636363636354 Z"></path><path fill="#4443C3" d="M 644 30.363636363636317 L 648 34.36363636363632 644 38.36363636363632 640 34.36363636363632 Z"></path><path fill="#4443C3" d="M 558 49.45454545454541 L 562 53.45454545454541 558 57.45454545454541 554 53.45454545454541 Z"></path><path fill="#4443C3" d="M 472 83.81818181818186 L 476 87.81818181818186 472 91.81818181818186 468 87.81818181818186 Z"></path><path fill="#4443C3" d="M 386 99.09090909090907 L 390 103.09090909090907 386 107.09090909090907 382 103.09090909090907 Z"></path><path fill="#4443C3" d="M 300 125.81818181818176 L 304 129.81818181818176 300 133.81818181818176 296 129.81818181818176 Z"></path><path fill="#4443C3" d="M 214 129.63636363636363 L 218 133.63636363636363 214 137.63636363636363 210 133.63636363636363 Z"></path><path fill="#4443C3" d="M 128 144.90909090909085 L 132 148.90909090909085 128 152.90909090909085 124 148.90909090909085 Z"></path><path fill="#4443C3" d="M 42 156.36363636363635 L 46 160.36363636363635 42 164.36363636363635 38 160.36363636363635 Z"></path></g></g><text x="520" text-anchor="middle" class="highcharts-title"  style="color:#777;font-size:18px;fill:#777;width:976px;" y="24"><tspan style="fill:#4443C3;font-size:24px;font-weight:bold;font-family: 'lora'">Per capita cheese consumption</tspan><tspan style="font-family: 'lora'" x="520" dy="21"> correlates with </tspan><tspan style="fill:#000000;font-size:24px;font-weight:bold;font-family: 'lora'" x="520" dy="29">Number of people who died by becoming tangled in their bedsheets</tspan></text><g class="highcharts-legend"  transform="translate(387,370)"><g ><g><g class="highcharts-legend-item"  transform="translate(8,3)"><path fill="none" d="M 0 11 L 16 11" stroke="#000000" stroke-width="2"></path><path fill="#000000" d="M 8 7 C 13.328 7 13.328 15 8 15 C 2.6719999999999997 15 2.6719999999999997 7 8 7 Z"></path><text x="21" style="color:#333333;font-size:12px;font-weight:bold;cursor:pointer;fill:#333333;" text-anchor="start"  y="15"><tspan>Bedsheet tanglings</tspan></text></g><g class="highcharts-legend-item"  transform="translate(146.015625,3)"><path fill="none" d="M 0 11 L 16 11" stroke="#4443C3" stroke-width="2"></path><path fill="#4443C3" d="M 8 7 L 12 11 8 15 4 11 Z"></path><text x="21" y="15" style="color:#333333;font-size:12px;font-weight:bold;cursor:pointer;fill:#333333;" text-anchor="start" ><tspan>Cheese consumed</tspan></text></g></g></g></g><g class="highcharts-axis-labels highcharts-xaxis-labels" ><text x="125.95" style="color:#000000;cursor:default;font-size:11px;fill:#000000;width:75px;text-overflow:clip;" text-anchor="middle" transform="translate(0,0)" y="357" opacity="1">2000</text><text x="211.85000000000002" style="color:#000000;cursor:default;font-size:11px;fill:#000000;width:75px;text-overflow:clip;" text-anchor="middle" transform="translate(0,0)" y="357" opacity="1">2001</text><text x="297.75" style="color:#000000;cursor:default;font-size:11px;fill:#000000;width:75px;text-overflow:clip;" text-anchor="middle" transform="translate(0,0)" y="357" opacity="1">2002</text><text x="383.65000000000003" style="color:#000000;cursor:default;font-size:11px;fill:#000000;width:75px;text-overflow:clip;" text-anchor="middle" transform="translate(0,0)" y="357" opacity="1">2003</text><text x="469.55" style="color:#000000;cursor:default;font-size:11px;fill:#000000;width:75px;text-overflow:clip;" text-anchor="middle" transform="translate(0,0)" y="357" opacity="1">2004</text><text x="555.45" style="color:#000000;cursor:default;font-size:11px;fill:#000000;width:75px;text-overflow:clip;" text-anchor="middle" transform="translate(0,0)" y="357" opacity="1">2005</text><text x="641.35" style="color:#000000;cursor:default;font-size:11px;fill:#000000;width:75px;text-overflow:clip;" text-anchor="middle" transform="translate(0,0)" y="357" opacity="1">2006</text><text x="727.25" style="color:#000000;cursor:default;font-size:11px;fill:#000000;width:75px;text-overflow:clip;" text-anchor="middle" transform="translate(0,0)" y="357" opacity="1">2007</text><text x="813.1500000000001" style="color:#000000;cursor:default;font-size:11px;fill:#000000;width:75px;text-overflow:clip;" text-anchor="middle" transform="translate(0,0)" y="357" opacity="1">2008</text><text x="899.0500000000001" style="color:#000000;cursor:default;font-size:11px;fill:#000000;width:75px;text-overflow:clip;" text-anchor="middle" transform="translate(0,0)" y="357" opacity="1">2009</text></g><g class="highcharts-axis-labels highcharts-xaxis-labels" ><text x="125.95" style="color:#4443C3;cursor:default;font-size:11px;fill:#4443C3;width:75px;text-overflow:clip;" text-anchor="middle" transform="translate(0,0)" y="113" opacity="1">2000</text><text x="211.85000000000002" style="color:#4443C3;cursor:default;font-size:11px;fill:#4443C3;width:75px;text-overflow:clip;" text-anchor="middle" transform="translate(0,0)" y="113" opacity="1">2001</text><text x="297.75" style="color:#4443C3;cursor:default;font-size:11px;fill:#4443C3;width:75px;text-overflow:clip;" text-anchor="middle" transform="translate(0,0)" y="113" opacity="1">2002</text><text x="383.65000000000003" style="color:#4443C3;cursor:default;font-size:11px;fill:#4443C3;width:75px;text-overflow:clip;" text-anchor="middle" transform="translate(0,0)" y="113" opacity="1">2003</text><text x="469.55" style="color:#4443C3;cursor:default;font-size:11px;fill:#4443C3;width:75px;text-overflow:clip;" text-anchor="middle" transform="translate(0,0)" y="113" opacity="1">2004</text><text x="555.45" style="color:#4443C3;cursor:default;font-size:11px;fill:#4443C3;width:75px;text-overflow:clip;" text-anchor="middle" transform="translate(0,0)" y="113" opacity="1">2005</text><text x="641.35" style="color:#4443C3;cursor:default;font-size:11px;fill:#4443C3;width:75px;text-overflow:clip;" text-anchor="middle" transform="translate(0,0)" y="113" opacity="1">2006</text><text x="727.25" style="color:#4443C3;cursor:default;font-size:11px;fill:#4443C3;width:75px;text-overflow:clip;" text-anchor="middle" transform="translate(0,0)" y="113" opacity="1">2007</text><text x="813.1500000000001" style="color:#4443C3;cursor:default;font-size:11px;fill:#4443C3;width:75px;text-overflow:clip;" text-anchor="middle" transform="translate(0,0)" y="113" opacity="1">2008</text><text x="899.0500000000001" style="color:#4443C3;cursor:default;font-size:11px;fill:#4443C3;width:75px;text-overflow:clip;" text-anchor="middle" transform="translate(0,0)" y="113" opacity="1">2009</text></g><g class="highcharts-axis-labels highcharts-yaxis-labels" ><text x="957" style="color:#000000;cursor:default;font-size:11px;fill:#000000;width:333px;text-overflow:clip;" text-anchor="start" transform="translate(0,0)" y="343" opacity="1"><tspan>200 deaths</tspan></text><text x="957" style="color:#000000;cursor:default;font-size:11px;fill:#000000;width:333px;text-overflow:clip;" text-anchor="start" transform="translate(0,0)" y="283" opacity="1"><tspan>400 deaths</tspan></text><text x="957" style="color:#000000;cursor:default;font-size:11px;fill:#000000;width:333px;text-overflow:clip;" text-anchor="start" transform="translate(0,0)" y="223" opacity="1"><tspan>600 deaths</tspan></text><text x="957" style="color:#000000;cursor:default;font-size:11px;fill:#000000;width:333px;text-overflow:clip;" text-anchor="start" transform="translate(0,0)" y="163" opacity="1"><tspan>800 deaths</tspan></text></g><g class="highcharts-axis-labels highcharts-yaxis-labels" ><text x="68" style="color:#4443C3;cursor:default;font-size:11px;fill:#4443C3;width:333px;text-overflow:clip;" text-anchor="end" transform="translate(0,0)" y="343" opacity="1">28.5lbs</text><text x="68" style="color:#4443C3;cursor:default;font-size:11px;fill:#4443C3;width:333px;text-overflow:clip;" text-anchor="end" transform="translate(0,0)" y="286" opacity="1">30lbs</text><text x="68" style="color:#4443C3;cursor:default;font-size:11px;fill:#4443C3;width:333px;text-overflow:clip;" text-anchor="end" transform="translate(0,0)" y="228" opacity="1">31.5lbs</text><text x="68" style="color:#4443C3;cursor:default;font-size:11px;fill:#4443C3;width:333px;text-overflow:clip;" text-anchor="end" transform="translate(0,0)" y="171" opacity="1">33lbs</text></g><g class="highcharts-tooltip"  style="cursor:default;padding:0;white-space:nowrap;" transform="translate(0,-9999)"><path fill="none" d="M 3 0 L 13 0 C 16 0 16 0 16 3 L 16 13 C 16 16 16 16 13 16 L 3 16 C 0 16 0 16 0 13 L 0 3 C 0 0 0 0 3 0"  stroke="black" stroke-opacity="0.049999999999999996" stroke-width="5" transform="translate(1, 1)"></path><path fill="none" d="M 3 0 L 13 0 C 16 0 16 0 16 3 L 16 13 C 16 16 16 16 13 16 L 3 16 C 0 16 0 16 0 13 L 0 3 C 0 0 0 0 3 0"  stroke="black" stroke-opacity="0.09999999999999999" stroke-width="3" transform="translate(1, 1)"></path><path fill="none" d="M 3 0 L 13 0 C 16 0 16 0 16 3 L 16 13 C 16 16 16 16 13 16 L 3 16 C 0 16 0 16 0 13 L 0 3 C 0 0 0 0 3 0"  stroke="black" stroke-opacity="0.15" stroke-width="1" transform="translate(1, 1)"></path><path fill="rgb(249, 249, 249)" fill-opacity=" .85" d="M 3 0 L 13 0 C 16 0 16 0 16 3 L 16 13 C 16 16 16 16 13 16 L 3 16 C 0 16 0 16 0 13 L 0 3 C 0 0 0 0 3 0"></path><text x="8"  style="font-size:12px;color:#333333;fill:#333333;" transform="translate(0,20)"></text></g><text x="1030" text-anchor="end"  style="cursor:pointer;color:#909090;font-size:9px;fill:#909090;" y="405">tylervigen.com</text></svg>